# xmcd
#
# Track frame offsets: 
#        182
#        26130
#        49167
#        68705
#        95670
#        115390
#        137817
#        156880
#        192455
#        208817
#        216755
#
# Disc length: 3252 seconds
#
# Revision: 2
# Processed by: cddbd v1.5.2PL0 Copyright (c) Steve Scherf et al.
# Submitted via: ExactAudioCopy v1.0b3
#
DISCID=ab0cb20b
DTITLE=Walter Trout Band - Prisoner of a Dream
DYEAR=1990
DGENRE=Blues-Rock
TTITLE0=Prisoner of a Dream
TTITLE1=The Love That We Once Knew
TTITLE2=Sweet as a Flower
TTITLE3=Love in Vain
TTITLE4=Victor the Cajun
TTITLE5=Girl from the North Country
TTITLE6=False Alarm
TTITLE7=Say Goodbye to the Blues
TTITLE8=You're the One
TTITLE9=Earrings on the Table
TTITLE10=Tribute to Muddy Waters [bonus track]
EXTD=
EXTT0=
EXTT1=
EXTT2=
EXTT3=
EXTT4=
EXTT5=
EXTT6=
EXTT7=
EXTT8=
EXTT9=
EXTT10=
PLAYORDER=
